<?xml version="1.0" encoding="UTF-8" standalone="no"?>
<!DOCTYPE svg PUBLIC "-//W3C//DTD SVG 1.1//EN" "http://www.w3.org/Graphics/SVG/1.1/DTD/svg11.dtd">
<svg width="100%" height="100%" viewBox="0 0 1163 218" version="1.1" xmlns="http://www.w3.org/2000/svg" xmlns:xlink="http://www.w3.org/1999/xlink" xml:space="preserve" xmlns:serif="http://www.serif.com/" style="fill-rule:evenodd;clip-rule:evenodd;stroke-linejoin:round;stroke-miterlimit:2;">
    <g transform="matrix(1,0,0,1,-585.355,-1590.5)">
        <g transform="matrix(1,0,0,1,576.931,1804.04)">
            <g transform="matrix(300,0,0,300,0,0)">
                <path d="M0.313,0.012C0.257,0.012 0.204,0.004 0.152,-0.011C0.101,-0.026 0.059,-0.045 0.028,-0.069L0.083,-0.191C0.113,-0.17 0.148,-0.152 0.189,-0.139C0.231,-0.125 0.272,-0.118 0.314,-0.118C0.346,-0.118 0.372,-0.121 0.392,-0.128C0.412,-0.134 0.426,-0.143 0.435,-0.154C0.444,-0.166 0.449,-0.179 0.449,-0.193C0.449,-0.212 0.442,-0.227 0.427,-0.238C0.412,-0.249 0.393,-0.258 0.369,-0.265C0.345,-0.272 0.318,-0.279 0.289,-0.285C0.26,-0.291 0.231,-0.299 0.202,-0.308C0.173,-0.317 0.147,-0.329 0.123,-0.344C0.099,-0.359 0.079,-0.378 0.064,-0.402C0.05,-0.426 0.042,-0.457 0.042,-0.494C0.042,-0.534 0.053,-0.57 0.074,-0.603C0.096,-0.636 0.129,-0.662 0.172,-0.682C0.216,-0.702 0.271,-0.712 0.337,-0.712C0.381,-0.712 0.424,-0.707 0.467,-0.696C0.51,-0.686 0.548,-0.67 0.58,-0.65L0.53,-0.527C0.497,-0.546 0.465,-0.56 0.432,-0.569C0.399,-0.577 0.367,-0.582 0.336,-0.582C0.304,-0.582 0.279,-0.578 0.259,-0.571C0.239,-0.564 0.225,-0.554 0.216,-0.542C0.207,-0.53 0.203,-0.517 0.203,-0.502C0.203,-0.484 0.21,-0.469 0.225,-0.458C0.24,-0.447 0.259,-0.438 0.283,-0.432C0.307,-0.425 0.334,-0.418 0.363,-0.412C0.392,-0.406 0.421,-0.398 0.45,-0.389C0.479,-0.38 0.505,-0.368 0.529,-0.354C0.553,-0.339 0.573,-0.32 0.587,-0.296C0.602,-0.272 0.61,-0.242 0.61,-0.205C0.61,-0.166 0.599,-0.13 0.577,-0.097C0.555,-0.064 0.523,-0.038 0.479,-0.018C0.435,0.002 0.38,0.012 0.313,0.012Z" style="fill:rgb(247,147,26);fill-rule:nonzero;"/>
            </g>
            <g transform="matrix(300,0,0,300,176.4,0)">
                <path d="M-0.009,-0L0.303,-0.7L0.463,-0.7L0.776,-0L0.606,-0L0.35,-0.618L0.414,-0.618L0.157,-0L-0.009,-0ZM0.147,-0.15L0.19,-0.273L0.55,-0.273L0.594,-0.15L0.147,-0.15Z" style="fill:rgb(247,147,26);fill-rule:nonzero;"/>
            </g>
            <g transform="matrix(300,0,0,300,380.7,0)">
                <path d="M0.228,-0L0.228,-0.568L0.004,-0.568L0.004,-0.7L0.614,-0.7L0.614,-0.568L0.39,-0.568L0.39,-0L0.228,-0Z" style="fill:rgb(247,147,26);fill-rule:nonzero;"/>
            </g>
            <g transform="matrix(300,0,0,300,555,0)">
                <path d="M0.059,-0.416L0.049,-0.7L0.182,-0.7L0.171,-0.416L0.059,-0.416Z" style="fill:white;fill-rule:nonzero;"/>
            </g>
            <g transform="matrix(300,0,0,300,609,0)">
                <path d="M0.313,0.012C0.257,0.012 0.204,0.004 0.152,-0.011C0.101,-0.026 0.059,-0.045 0.028,-0.069L0.083,-0.191C0.113,-0.17 0.148,-0.152 0.189,-0.139C0.231,-0.125 0.272,-0.118 0.314,-0.118C0.346,-0.118 0.372,-0.121 0.392,-0.128C0.412,-0.134 0.426,-0.143 0.435,-0.154C0.444,-0.166 0.449,-0.179 0.449,-0.193C0.449,-0.212 0.442,-0.227 0.427,-0.238C0.412,-0.249 0.393,-0.258 0.369,-0.265C0.345,-0.272 0.318,-0.279 0.289,-0.285C0.26,-0.291 0.231,-0.299 0.202,-0.308C0.173,-0.317 0.147,-0.329 0.123,-0.344C0.099,-0.359 0.079,-0.378 0.064,-0.402C0.05,-0.426 0.042,-0.457 0.042,-0.494C0.042,-0.534 0.053,-0.57 0.074,-0.603C0.096,-0.636 0.129,-0.662 0.172,-0.682C0.216,-0.702 0.271,-0.712 0.337,-0.712C0.381,-0.712 0.424,-0.707 0.467,-0.696C0.51,-0.686 0.548,-0.67 0.58,-0.65L0.53,-0.527C0.497,-0.546 0.465,-0.56 0.432,-0.569C0.399,-0.577 0.367,-0.582 0.336,-0.582C0.304,-0.582 0.279,-0.578 0.259,-0.571C0.239,-0.564 0.225,-0.554 0.216,-0.542C0.207,-0.53 0.203,-0.517 0.203,-0.502C0.203,-0.484 0.21,-0.469 0.225,-0.458C0.24,-0.447 0.259,-0.438 0.283,-0.432C0.307,-0.425 0.334,-0.418 0.363,-0.412C0.392,-0.406 0.421,-0.398 0.45,-0.389C0.479,-0.38 0.505,-0.368 0.529,-0.354C0.553,-0.339 0.573,-0.32 0.587,-0.296C0.602,-0.272 0.61,-0.242 0.61,-0.205C0.61,-0.166 0.599,-0.13 0.577,-0.097C0.555,-0.064 0.523,-0.038 0.479,-0.018C0.435,0.002 0.38,0.012 0.313,0.012Z" style="fill:rgb(247,147,26);fill-rule:nonzero;"/>
            </g>
            <g transform="matrix(300,0,0,300,855.3,0)">
                <rect x="0.083" y="-0.7" width="0.162" height="0.7" style="fill:white;fill-rule:nonzero;"/>
            </g>
            <g transform="matrix(300,0,0,300,938.7,0)">
                <path d="M0.228,-0L0.228,-0.568L0.004,-0.568L0.004,-0.7L0.614,-0.7L0.614,-0.568L0.39,-0.568L0.39,-0L0.228,-0Z" style="fill:white;fill-rule:nonzero;"/>
            </g>
        </g>
        <g transform="matrix(0.36215,0,0,0.36215,1699.77,1759.29)">
            <g transform="matrix(1,0,0,1,-133.333,-133.333)">
                <clipPath id="_clip1">
                    <rect x="0" y="0" width="266.667" height="266.667"/>
                </clipPath>
                <g clip-path="url(#_clip1)">
                    <g transform="matrix(4.16667,0,0,4.16667,0.0262865,-0.0125827)">
                        <path d="M63.033,39.744C58.759,56.887 41.396,67.32 24.251,63.045C7.113,58.771 -3.32,41.407 0.956,24.265C5.228,7.12 22.591,-3.314 39.731,0.96C56.875,5.234 67.307,22.6 63.033,39.744Z" style="fill:rgb(247,147,26);fill-rule:nonzero;"/>
                        <path d="M46.103,27.444C46.74,23.186 43.498,20.897 39.065,19.37L40.503,13.602L36.992,12.727L35.592,18.343C34.669,18.113 33.721,17.896 32.779,17.681L34.189,12.028L30.68,11.153L29.241,16.919C28.477,16.745 27.727,16.573 26.999,16.392L27.003,16.374L22.161,15.165L21.227,18.915C21.227,18.915 23.832,19.512 23.777,19.549C25.199,19.904 25.456,20.845 25.413,21.591L23.775,28.162C23.873,28.187 24,28.223 24.14,28.279C24.023,28.25 23.898,28.218 23.769,28.187L21.473,37.392C21.299,37.824 20.858,38.472 19.864,38.226C19.899,38.277 17.312,37.589 17.312,37.589L15.569,41.608L20.138,42.747C20.988,42.96 21.821,43.183 22.641,43.393L21.188,49.227L24.695,50.102L26.134,44.33C27.092,44.59 28.022,44.83 28.932,45.056L27.498,50.801L31.009,51.676L32.462,45.853C38.449,46.986 42.951,46.529 44.846,41.114C46.373,36.754 44.77,34.239 41.62,32.599C43.914,32.07 45.642,30.561 46.103,27.444ZM38.081,38.693C36.996,43.053 29.655,40.696 27.275,40.105L29.203,32.376C31.583,32.97 39.215,34.146 38.081,38.693ZM39.167,27.381C38.177,31.347 32.067,29.332 30.085,28.838L31.833,21.828C33.815,22.322 40.198,23.244 39.167,27.381Z" style="fill:white;fill-rule:nonzero;"/>
                    </g>
                </g>
            </g>
        </g>
    </g>
</svg>
